REM DIRINDEX 1\2\6,1\2\4\7,1\2\4\8,1\2\5\9,1\3\12,1\3\10\13,1\3\10\14,1\3\10\15,1\3\11\16,1\3\11\17
REM DIRNAME folder01,folder02,folder03,folder04,folder05,folder06,folder07,folder08,folder09,folder10,folder11,folder12,folder13,folder14,folder15,folder16,folder17
TITLE ""
FILE "157.mp3" MP3
  TRACK 01 AUDIO
    TITLE "12:cjc048_11137"
    INDEX 01 00:00:00
  TRACK 02 AUDIO
    TITLE "16:cjc048_11138"
    INDEX 01 00:01:71
  TRACK 03 AUDIO
    TITLE "17:cjc048_11139"
    INDEX 01 00:03:08
  TRACK 04 AUDIO
    TITLE "16:cjc048_11140"
    INDEX 01 00:04:60
  TRACK 05 AUDIO
    TITLE "17:cjc048_11141"
    INDEX 01 00:05:59
  TRACK 06 AUDIO
    TITLE "16:cjc048_11142"
    INDEX 01 00:06:71
  TRACK 07 AUDIO
    TITLE "17:cjc048_11143"
    INDEX 01 00:07:66
  TRACK 08 AUDIO
    TITLE "16:cjc048_11144"
    INDEX 01 00:09:10
  TRACK 09 AUDIO
    TITLE "17:cjc048_11145"
    INDEX 01 00:10:18
  TRACK 10 AUDIO
    TITLE "16:cjc048_11146"
    INDEX 01 00:11:31
  TRACK 11 AUDIO
    TITLE "17:cjc048_11147"
    INDEX 01 00:12:44
  TRACK 12 AUDIO
    TITLE "16:cjc048_11148"
    INDEX 01 00:14:68
  TRACK 13 AUDIO
    TITLE "17:cjc048_11149"
    INDEX 01 00:16:12
  TRACK 14 AUDIO
    TITLE "16:cjc048_11150"
    INDEX 01 00:17:69
  TRACK 15 AUDIO
    TITLE "17:cjc048_11151"
    INDEX 01 00:18:74
  TRACK 16 AUDIO
    TITLE "16:cjc048_11152"
    INDEX 01 00:20:36
  TRACK 17 AUDIO
    TITLE "17:cjc048_11153"
    INDEX 01 00:21:43
  TRACK 18 AUDIO
    TITLE "16:cjc048_11154"
    INDEX 01 00:23:12
  TRACK 19 AUDIO
    TITLE "17:cjc048_11155"
    INDEX 01 00:24:14
  TRACK 20 AUDIO
    TITLE "16:cjc048_11156"
    INDEX 01 00:25:62
  TRACK 21 AUDIO
    TITLE "17:cjc048_11157"
    INDEX 01 00:27:12
  TRACK 22 AUDIO
    TITLE "16:cjc048_11158"
    INDEX 01 00:30:12
  TRACK 23 AUDIO
    TITLE "17:cjc048_11159"
    INDEX 01 00:31:02
  TRACK 24 AUDIO
    TITLE "16:cjc048_11160"
    INDEX 01 00:33:21
  TRACK 25 AUDIO
    TITLE "17:cjc048_11161"
    INDEX 01 00:34:18
  TRACK 26 AUDIO
    TITLE "16:cjc048_11162"
    INDEX 01 00:36:56
  TRACK 27 AUDIO
    TITLE "17:cjc048_11163"
    INDEX 01 00:37:59
  TRACK 28 AUDIO
    TITLE "16:cjc048_11164"
    INDEX 01 00:40:21
  TRACK 29 AUDIO
    TITLE "17:cjc048_11165"
    INDEX 01 00:41:38
  TRACK 30 AUDIO
    TITLE "16:cjc048_11166"
    INDEX 01 00:43:21
  TRACK 31 AUDIO
    TITLE "17:cjc048_11167"
    INDEX 01 00:44:20
  TRACK 32 AUDIO
    TITLE "16:cjc048_11168"
    INDEX 01 00:46:33
  TRACK 33 AUDIO
    TITLE "17:cjc048_11169"
    INDEX 01 00:47:36
  TRACK 34 AUDIO
    TITLE "16:cjc048_11170"
    INDEX 01 00:48:65
  TRACK 35 AUDIO
    TITLE "17:cjc048_11171"
    INDEX 01 00:49:61
  TRACK 36 AUDIO
    TITLE "16:cjc048_11172"
    INDEX 01 00:52:10
  TRACK 37 AUDIO
    TITLE "17:cjc048_11173"
    INDEX 01 00:53:15
  TRACK 38 AUDIO
    TITLE "16:cjc048_11174"
    INDEX 01 00:56:08
  TRACK 39 AUDIO
    TITLE "17:cjc048_11175"
    INDEX 01 00:57:07
  TRACK 40 AUDIO
    TITLE "16:cjc048_11176"
    INDEX 01 00:58:66
  TRACK 41 AUDIO
    TITLE "17:cjc048_11177"
    INDEX 01 00:59:65
  TRACK 42 AUDIO
    TITLE "16:cjc048_11178"
    INDEX 01 01:01:33
  TRACK 43 AUDIO
    TITLE "17:cjc048_11179"
    INDEX 01 01:02:44
  TRACK 44 AUDIO
    TITLE "16:cjc048_11180"
    INDEX 01 01:04:48
  TRACK 45 AUDIO
    TITLE "17:cjc048_11181"
    INDEX 01 01:05:58
  TRACK 46 AUDIO
    TITLE "16:cjc048_11182"
    INDEX 01 01:07:31
  TRACK 47 AUDIO
    TITLE "17:cjc048_11183"
    INDEX 01 01:08:42
  TRACK 48 AUDIO
    TITLE "16:cjc048_11184"
    INDEX 01 01:11:02
  TRACK 49 AUDIO
    TITLE "17:cjc048_11185"
    INDEX 01 01:12:01
  TRACK 50 AUDIO
    TITLE "16:cjc048_11186"
    INDEX 01 01:13:36
  TRACK 51 AUDIO
    TITLE "17:cjc048_11187"
    INDEX 01 01:14:41
  TRACK 52 AUDIO
    TITLE "16:cjc048_11188"
    INDEX 01 01:16:50
  TRACK 53 AUDIO
    TITLE "17:cjc048_11189"
    INDEX 01 01:17:59
  TRACK 54 AUDIO
    TITLE "16:cjc048_11190"
    INDEX 01 01:19:13
  TRACK 55 AUDIO
    TITLE "17:cjc048_11191"
    INDEX 01 01:20:28
  TRACK 56 AUDIO
    TITLE "16:cjc048_11192"
    INDEX 01 01:22:58
  TRACK 57 AUDIO
    TITLE "17:cjc048_11193"
    INDEX 01 01:23:73
  TRACK 58 AUDIO
    TITLE "16:cjc048_11194"
    INDEX 01 01:25:08
  TRACK 59 AUDIO
    TITLE "17:cjc048_11195"
    INDEX 01 01:26:01
  TRACK 60 AUDIO
    TITLE "16:cjc048_11196"
    INDEX 01 01:27:38
  TRACK 61 AUDIO
    TITLE "17:cjc048_11197"
    INDEX 01 01:28:37
  TRACK 62 AUDIO
    TITLE "16:cjc048_11198"
    INDEX 01 01:30:44
  TRACK 63 AUDIO
    TITLE "17:cjc048_11199"
    INDEX 01 01:31:63
  TRACK 64 AUDIO
    TITLE "16:cjc048_11200"
    INDEX 01 01:33:05
  TRACK 65 AUDIO
    TITLE "17:cjc048_11201"
    INDEX 01 01:34:01
  TRACK 66 AUDIO
    TITLE "16:cjc048_11202"
    INDEX 01 01:36:03
  TRACK 67 AUDIO
    TITLE "17:cjc048_11203"
    INDEX 01 01:37:03
  TRACK 68 AUDIO
    TITLE "16:cjc048_11204"
    INDEX 01 01:38:06
  TRACK 69 AUDIO
    TITLE "17:cjc048_11205"
    INDEX 01 01:39:00
  TRACK 70 AUDIO
    TITLE "16:cjc048_11206"
    INDEX 01 01:40:66
  TRACK 71 AUDIO
    TITLE "17:cjc048_11207"
    INDEX 01 01:41:59
  TRACK 72 AUDIO
    TITLE "16:cjc048_11208"
    INDEX 01 01:43:07
  TRACK 73 AUDIO
    TITLE "17:cjc048_11209"
    INDEX 01 01:44:03
  TRACK 74 AUDIO
    TITLE "16:cjc048_11210"
    INDEX 01 01:45:28
  TRACK 75 AUDIO
    TITLE "17:cjc048_11211"
    INDEX 01 01:46:25
  TRACK 76 AUDIO
    TITLE "16:cjc048_11212"
    INDEX 01 01:48:71
  TRACK 77 AUDIO
    TITLE "17:cjc048_11213"
    INDEX 01 01:49:71
  TRACK 78 AUDIO
    TITLE "16:cjc048_11214"
    INDEX 01 01:52:36
  TRACK 79 AUDIO
    TITLE "17:cjc048_11215"
    INDEX 01 01:53:37
  TRACK 80 AUDIO
    TITLE "16:cjc048_11216"
    INDEX 01 01:56:02
  TRACK 81 AUDIO
    TITLE "17:cjc048_11217"
    INDEX 01 01:57:08
  TRACK 82 AUDIO
    TITLE "16:cjc048_11218"
    INDEX 01 01:59:08
  TRACK 83 AUDIO
    TITLE "17:cjc048_11219"
    INDEX 01 02:00:04
  TRACK 84 AUDIO
    TITLE "16:cjc048_11220"
    INDEX 01 02:01:35
  TRACK 85 AUDIO
    TITLE "17:cjc048_11221"
    INDEX 01 02:02:46
  TRACK 86 AUDIO
    TITLE "16:cjc048_11222"
    INDEX 01 02:05:15
  TRACK 87 AUDIO
    TITLE "17:cjc048_11223"
    INDEX 01 02:06:10
  TRACK 88 AUDIO
    TITLE "0:"
    INDEX 01 02:08:27
